0
SECTION
2
HEADER
9
$INSUNITS
70
4
9
$ACADVER
1
AC1014
9
$HANDSEED
5
FFFF
0
ENDSEC
0
SECTION
2
TABLES
0
TABLE
2
VPORT
5
8
100
AcDbSymbolTable
0
ENDTAB
0
TABLE
2
LTYPE
5
5
100
AcDbSymbolTable
0
LTYPE
5
14
100
AcDbSymbolTableRecord
100
AcDbLinetypeTableRecord
2
BYBLOCK
70
0
0
LTYPE
5
15
100
AcDbSymbolTableRecord
100
AcDbLinetypeTableRecord
2
BYLAYER
70
0
0
ENDTAB
0
TABLE
2
LAYER
5
2
100
AcDbSymbolTable
70
2
0
LAYER
5
50
100
AcDbSymbolTableRecord
100
AcDbLayerTableRecord
2
0
70
0
6
CONTINUOUS
0
ENDTAB
0
TABLE
2
STYLE
5
3
100
AcDbSymbolTable
70
1
0
STYLE
5
11
100
AcDbSymbolTableRecord
100
AcDbTextStyleTableRecord
2
STANDARD
70
0
0
ENDTAB
0
TABLE
2
VIEW
5
6
100
AcDbSymbolTable
70
0
0
ENDTAB
0
TABLE
2
UCS
5
7
100
AcDbSymbolTable
70
0
0
ENDTAB
0
TABLE
2
APPID
5
9
100
AcDbSymbolTable
70
2
0
APPID
5
12
100
AcDbSymbolTableRecord
100
AcDbRegAppTableRecord
2
ACAD
70
0
0
ENDTAB
0
TABLE
2
DIMSTYLE
5
A
100
AcDbSymbolTable
70
1
0
ENDTAB
0
TABLE
2
BLOCK_RECORD
5
1
100
AcDbSymbolTable
70
1
0
BLOCK_RECORD
5
1F
100
AcDbSymbolTableRecord
100
AcDbBlockTableRecord
2
*MODEL_SPACE
0
BLOCK_RECORD
5
1B
100
AcDbSymbolTableRecord
100
AcDbBlockTableRecord
2
*PAPER_SPACE
0
ENDTAB
0
ENDSEC
0
SECTION
2
BLOCKS
0
BLOCK
5
20
100
AcDbEntity
100
AcDbBlockBegin
2
*MODEL_SPACE
0
ENDBLK
5
21
100
AcDbEntity
100
AcDbBlockEnd
0
BLOCK
5
1C
100
AcDbEntity
100
AcDbBlockBegin
2
*PAPER_SPACE
0
ENDBLK
5
1D
100
AcDbEntity
100
AcDbBlockEnd
0
ENDSEC
0
SECTION
2
ENTITIES
0
LWPOLYLINE
5
100
100
AcDbEntity
8
0
100
AcDbPolyline
90
8
70
1
43
0.0
10
-58.274999999997654
20
-31.238126953124965
10
-58.274999999997654
20
-29.238126953124961
42
0.41421356237309503
10
-58.774999999997647
20
-28.738126953124965
10
-67.524999999997632
20
-28.738126953124965
42
0.41421356237309503
10
-68.024999999997632
20
-29.238126953124961
10
-68.024999999997632
20
-31.238126953124969
42
0.41421356237309503
10
-67.524999999997632
20
-31.738126953124969
10
-58.774999999997647
20
-31.738126953124961
42
0.41421356237309503
0
LWPOLYLINE
5
101
100
AcDbEntity
8
0
100
AcDbPolyline
90
8
70
1
43
0.0
10
-66.599999999999994
20
-19.505126953124968
10
-59.699999999995228
20
-19.505126953124964
42
0.41421356237309531
10
-57.199999999995214
20
-17.005126953124943
10
-57.199999999995214
20
5.9948730468750373
42
0.41421356237309503
10
-59.699999999995214
20
8.4948730468750391
10
-66.59999999999998
20
8.4948730468750391
42
0.41421356237309503
10
-69.099999999999994
20
5.9948730468750311
10
-69.099999999999994
20
-17.005126953124964
42
0.41421356237309503
0
LWPOLYLINE
5
102
100
AcDbEntity
8
0
100
AcDbPolyline
90
8
70
1
43
0.0
10
74.39999473926251
20
-37.15368855276477
10
74.39999473926251
20
-25.01291208830251
42
0.41421356237309503
10
71.89999473926251
20
-22.51291208830251
10
64.39999473926251
20
-22.51291208830251
42
0.41421356237309503
10
61.89999473926251
20
-25.01291208830251
10
61.89999473926251
20
-37.15368855276477
42
0.41421356237309503
10
64.39999473926251
20
-39.65368855276477
10
71.89999473926251
20
-39.65368855276477
42
0.41421356237309503
0
LWPOLYLINE
5
103
100
AcDbEntity
8
0
100
AcDbPolyline
90
32
70
1
43
0.0
10
-94.456253051757812
20
-46.505126953124964
10
-94.456253051757812
20
76.746826171875028
10
-94.21295166015625
20
79.781799316406278
10
-93.489303588867188
20
82.738952636718778
10
-92.30377197265625
20
85.543212890625028
10
-90.686721801757812
20
88.122863769531278
10
-88.679275512695312
20
90.411682128906278
10
-86.332855224609375
20
92.351684570312528
10
-31.655381103185501
20
130.63720179568517
42
-0.15391452531537028
10
-23.051743955954006
20
133.34991455078125
10
23.051743955953995
20
133.34991455078125
42
-0.15391452531537061
10
31.655381103185487
20
130.63720179568517
10
86.332855224609375
20
92.351684570312528
10
88.679275512695312
20
90.411682128906278
10
90.6866455078125
20
88.122863769531278
10
92.30377197265625
20
85.543212890625028
10
93.489303588867188
20
82.738952636718778
10
94.21295166015625
20
79.781799316406278
10
94.456253051757812
20
76.746826171875028
10
94.456253051757812
20
-46.505126953124964
10
94.255142211914062
20
-49.266052246093714
10
93.655929565429688
20
-51.968688964843714
10
92.671432495117188
20
-54.555969238281214
10
79.676017761230469
20
-82.424621582031222
10
79.676017761230469
20
-123.3499124975318
42
-0.41421356237309553
10
69.676017761230469
20
-133.34991249753179
10
-69.676017761230469
20
-133.34991249753179
42
-0.41421356237309609
10
-79.676017761230469
20
-123.34991249753179
10
-79.676017761230469
20
-82.424621582031222
10
-92.671432495117188
20
-54.555969238281214
10
-93.655929565429688
20
-51.968688964843714
10
-94.255142211914062
20
-49.266052246093714
0
LWPOLYLINE
5
104
100
AcDbEntity
8
0
100
AcDbPolyline
90
8
70
1
43
0.0
10
12.289968530949293
20
27.928679515388577
10
-4.3154041335023061
20
27.928679515388577
42
0.41421356237309503
10
-5.3154041335023061
20
26.928679515388573
10
-5.315404133502307
20
22.928679515388577
42
0.41421356237309492
10
-4.315404133502307
20
21.928679515388573
10
12.289968530949292
20
21.928679515388577
42
0.41421356237309503
10
13.289968530949292
20
22.928679515388577
10
13.28996853094929
20
26.928679515388573
42
0.41421356237309437
0
CIRCLE
5
105
100
AcDbEntity
8
0
100
AcDbCircle
10
-23.05174395595396
20
118.34991455078111
30
0
40
1.5249999999999986
210
0
220
0
230
1
0
CIRCLE
5
106
100
AcDbEntity
8
0
100
AcDbCircle
10
23.051743955953967
20
118.34991455078114
30
0
40
1.5249999999999986
210
0
220
0
230
1
0
CIRCLE
5
107
100
AcDbEntity
8
0
100
AcDbCircle
10
31.124301376219528
20
-116.12759229030971
30
0
40
1.5249999999999986
210
0
220
0
230
1
0
CIRCLE
5
108
100
AcDbEntity
8
0
100
AcDbCircle
10
-31.124017761230469
20
-116.12759229030971
30
0
40
1.5249999999999986
210
0
220
0
230
1
0
CIRCLE
5
109
100
AcDbEntity
8
0
100
AcDbCircle
10
-63.14999999999764
20
-45.846126953124973
30
0
40
4.8749999999999982
210
0
220
0
230
1
0
CIRCLE
5
110
100
AcDbEntity
8
0
100
AcDbCircle
10
68.14999473926251
20
-59.294188552764773
30
0
40
6.25
210
0
220
0
230
1
0
CIRCLE
5
111
100
AcDbEntity
8
0
100
AcDbCircle
10
-87.126684690837649
20
-29.463958740234339
30
0
40
1.5249999999999986
210
0
220
0
230
1
0
CIRCLE
5
112
100
AcDbEntity
8
0
100
AcDbCircle
10
87.158417885309532
20
-29.463958740234339
30
0
40
1.5249999999999986
210
0
220
0
230
1
0
CIRCLE
5
113
100
AcDbEntity
8
0
100
AcDbCircle
10
-24.999993804385984
20
-98.899999466882932
30
0
40
2.099994076059688
210
0
220
0
230
1
0
CIRCLE
5
114
100
AcDbEntity
8
0
100
AcDbCircle
10
25.000003527302344
20
-98.900007124322428
30
0
40
2.0999999999999952
210
0
220
0
230
1
0
CIRCLE
5
115
100
AcDbEntity
8
0
100
AcDbCircle
10
-82.454508516111019
20
70.069618898374671
30
0
40
1.5000000000000013
210
0
220
0
230
1
0
CIRCLE
5
116
100
AcDbEntity
8
0
100
AcDbCircle
10
-87.126684690837635
20
56.388092041015661
30
0
40
1.5249999999999986
210
0
220
0
230
1
0
CIRCLE
5
117
100
AcDbEntity
8
0
100
AcDbCircle
10
-46.824067554496587
20
30.95171476995279
30
0
40
2.0999963938333988
210
0
220
0
230
1
0
CIRCLE
5
118
100
AcDbEntity
8
0
100
AcDbCircle
10
46.824056593650276
20
30.951702713454196
30
0
40
2.0999934082974292
210
0
220
0
230
1
0
CIRCLE
5
119
100
AcDbEntity
8
0
100
AcDbCircle
10
24.699999916752006
20
93.751660948405927
30
0
40
2.1000071828569311
210
0
220
0
230
1
0
CIRCLE
5
120
100
AcDbEntity
8
0
100
AcDbCircle
10
-24.999995004645097
20
18.899993803618656
30
0
40
2.0999999999999996
210
0
220
0
230
1
0
CIRCLE
5
121
100
AcDbEntity
8
0
100
AcDbCircle
10
25.000002615399648
20
18.899988378407613
30
0
40
2.0999999999999996
210
0
220
0
230
1
0
CIRCLE
5
122
100
AcDbEntity
8
0
100
AcDbCircle
10
-24.999998771035695
20
93.75166634960766
30
0
40
2.0999971050485255
210
0
220
0
230
1
0
CIRCLE
5
123
100
AcDbEntity
8
0
100
AcDbCircle
10
87.158417885309532
20
56.388092041015661
30
0
40
1.5249999999999986
210
0
220
0
230
1
0
CIRCLE
5
124
100
AcDbEntity
8
0
100
AcDbCircle
10
82.47100731860823
20
70.091122716416649
30
0
40
1.5000000000000036
210
0
220
0
230
1
0
ELLIPSE
5
125
100
AcDbEntity
8
0
100
AcDbEllipse
10
43.485941621579833
20
70.069618898374117
30
1.5276668818842154e-12
11
-0.97424768658707961
21
-1.1405443635298576
31
0.0
40
0.99999991508836006
41
0
42
6.2831853071795862
0
CIRCLE
5
126
100
AcDbEntity
8
0
100
AcDbCircle
10
-50.115197986077042
20
70.091665721713326
30
0
40
1.4999999999999947
210
0
220
0
230
1
0
CIRCLE
5
127
100
AcDbEntity
8
0
100
AcDbCircle
10
-13.28654879707444
20
24.928679515388573
30
0
40
1.5000000000000038
210
0
220
0
230
1
0
ENDSEC
0
SECTION
2
OBJECTS
0
DICTIONARY
5
C
100
AcDbDictionary
3
ACAD_GROUP
350
D
3
ACAD_MLINESTYLE
350
17
0
DICTIONARY
5
D
100
AcDbDictionary
0
DICTIONARY
5
1A
330
C
100
AcDbDictionary
0
DICTIONARY
5
17
100
AcDbDictionary
0
ENDSEC
0
EOF
