<?xml version="1.0" encoding="UTF-8" standalone="yes"?>
<!-- Created with sK1/UniConvertor (http://sk1project.org/) -->
<svg xmlns="http://www.w3.org/2000/svg" xmlns:xlink="http://www.w3.org/1999/xlink"
  width="595.276pt" height="841.89pt" viewBox="0 0 595.276 841.89"
  fill-rule="evenodd">
<g>
<path style="stroke:#000000; stroke-width:0.850394; stroke-linejoin:round; stroke-linecap:round; fill:none" d="M -58.275 873.128L -58.275 871.128L -58.775 870.628L -67.525 870.628L -68.025 871.128L -68.025 873.128L -67.525 873.628L -58.775 873.628L -58.275 873.128z"/>
<path style="stroke:#000000; stroke-width:0.850394; stroke-linejoin:round; stroke-linecap:round; fill:none" d="M -66.6 861.395L -59.7 861.395L -57.2 858.895L -57.2 835.895L -59.7 833.395L -66.6 833.395L -69.1 835.895L -69.1 858.895L -66.6 861.395z"/>
<path style="stroke:#000000; stroke-width:0.850394; stroke-linejoin:round; stroke-linecap:round; fill:none" d="M 74.4 879.043L 74.4 866.903L 71.9 864.403L 64.4 864.403L 61.9 866.903L 61.9 879.043L 64.4 881.543L 71.9 881.543L 74.4 879.043z"/>
<path style="stroke:#000000; stroke-width:0.850394; stroke-linejoin:round; stroke-linecap:round; fill:none" d="M -94.4563 888.395L -94.4563 765.143L -94.213 762.108L -93.4893 759.151L -92.3038 756.347L -90.6867 753.767L -88.6793 751.478L -86.3329 749.538L -31.6554 711.253L -23.0517 708.54L 23.0517 708.54L 31.6554 711.253L 86.3329 749.538L 88.6793 751.478L 90.6866 753.767L 92.3038 756.347L 93.4893 759.151L 94.213 762.108L 94.4563 765.143L 94.4563 888.395L 94.2551 891.156L 93.6559 893.858L 92.6714 896.446L 79.676 924.314L 79.676 965.24L 69.676 975.24L -69.676 975.24L -79.676 965.24L -79.676 924.314L -92.6714 896.446L -93.6559 893.858L -94.2551 891.156L -94.4563 888.395z"/>
<path style="stroke:#000000; stroke-width:0.850394; stroke-linejoin:round; stroke-linecap:round; fill:none" d="M 12.29 813.961L -4.3154 813.961L -5.3154 814.961L -5.3154 818.961L -4.3154 819.961L 12.29 819.961L 13.29 818.961L 13.29 814.961L 12.29 813.961z"/>
<path style="stroke:#000000; stroke-width:0.850394; stroke-linejoin:round; stroke-linecap:round; fill:none" d="M -21.5267 723.54C -21.5267 722.698 -22.21 722.015 -23.0517 722.015C -23.8935 722.015 -24.5767 722.698 -24.5767 723.54C -24.5767 724.382 -23.8935 725.065 -23.0517 725.065C -22.21 725.065 -21.5267 724.382 -21.5267 723.54z"/>
<path style="stroke:#000000; stroke-width:0.850394; stroke-linejoin:round; stroke-linecap:round; fill:none" d="M 24.5767 723.54C 24.5767 722.698 23.8935 722.015 23.0517 722.015C 22.21 722.015 21.5267 722.698 21.5267 723.54C 21.5267 724.382 22.21 725.065 23.0517 725.065C 23.8935 725.065 24.5767 724.382 24.5767 723.54z"/>
<path style="stroke:#000000; stroke-width:0.850394; stroke-linejoin:round; stroke-linecap:round; fill:none" d="M 32.6493 958.017C 32.6493 957.176 31.9661 956.492 31.1243 956.492C 30.2825 956.492 29.5993 957.176 29.5993 958.017C 29.5993 958.859 30.2825 959.542 31.1243 959.542C 31.9661 959.542 32.6493 958.859 32.6493 958.017z"/>
<path style="stroke:#000000; stroke-width:0.850394; stroke-linejoin:round; stroke-linecap:round; fill:none" d="M -29.599 958.017C -29.599 957.176 -30.2823 956.492 -31.124 956.492C -31.9658 956.492 -32.649 957.176 -32.649 958.017C -32.649 958.859 -31.9658 959.542 -31.124 959.542C -30.2823 959.542 -29.599 958.859 -29.599 958.017z"/>
<path style="stroke:#000000; stroke-width:0.850394; stroke-linejoin:round; stroke-linecap:round; fill:none" d="M -58.275 887.736C -58.275 885.045 -60.4591 882.861 -63.15 882.861C -65.8409 882.861 -68.025 885.045 -68.025 887.736C -68.025 890.427 -65.8409 892.611 -63.15 892.611C -60.4591 892.611 -58.275 890.427 -58.275 887.736z"/>
<path style="stroke:#000000; stroke-width:0.850394; stroke-linejoin:round; stroke-linecap:round; fill:none" d="M 74.4 901.184C 74.4 897.734 71.5998 894.934 68.15 894.934C 64.7002 894.934 61.9 897.734 61.9 901.184C 61.9 904.634 64.7002 907.434 68.15 907.434C 71.5998 907.434 74.4 904.634 74.4 901.184z"/>
<path style="stroke:#000000; stroke-width:0.850394; stroke-linejoin:round; stroke-linecap:round; fill:none" d="M -85.6017 871.354C -85.6017 870.512 -86.2849 869.829 -87.1267 869.829C -87.9684 869.829 -88.6517 870.512 -88.6517 871.354C -88.6517 872.195 -87.9684 872.879 -87.1267 872.879C -86.2849 872.879 -85.6017 872.195 -85.6017 871.354z"/>
<path style="stroke:#000000; stroke-width:0.850394; stroke-linejoin:round; stroke-linecap:round; fill:none" d="M 88.6834 871.354C 88.6834 870.512 88.0002 869.829 87.1584 869.829C 86.3167 869.829 85.6334 870.512 85.6334 871.354C 85.6334 872.195 86.3167 872.879 87.1584 872.879C 88.0002 872.879 88.6834 872.195 88.6834 871.354z"/>
<path style="stroke:#000000; stroke-width:0.850394; stroke-linejoin:round; stroke-linecap:round; fill:none" d="M -22.9 940.79C -22.9 939.631 -23.8409 938.69 -25 938.69C -26.1591 938.69 -27.1 939.631 -27.1 940.79C -27.1 941.949 -26.1591 942.89 -25 942.89C -23.8409 942.89 -22.9 941.949 -22.9 940.79z"/>
<path style="stroke:#000000; stroke-width:0.850394; stroke-linejoin:round; stroke-linecap:round; fill:none" d="M 27.1 940.79C 27.1 939.631 26.1591 938.69 25 938.69C 23.8409 938.69 22.9 939.631 22.9 940.79C 22.9 941.949 23.8409 942.89 25 942.89C 26.1591 942.89 27.1 941.949 27.1 940.79z"/>
<path style="stroke:#000000; stroke-width:0.850394; stroke-linejoin:round; stroke-linecap:round; fill:none" d="M -80.9545 771.82C -80.9545 770.992 -81.6266 770.32 -82.4545 770.32C -83.2825 770.32 -83.9545 770.992 -83.9545 771.82C -83.9545 772.648 -83.2825 773.32 -82.4545 773.32C -81.6266 773.32 -80.9545 772.648 -80.9545 771.82z"/>
<path style="stroke:#000000; stroke-width:0.850394; stroke-linejoin:round; stroke-linecap:round; fill:none" d="M -85.6017 785.502C -85.6017 784.66 -86.2849 783.977 -87.1267 783.977C -87.9684 783.977 -88.6517 784.66 -88.6517 785.502C -88.6517 786.343 -87.9684 787.027 -87.1267 787.027C -86.2849 787.027 -85.6017 786.343 -85.6017 785.502z"/>
<path style="stroke:#000000; stroke-width:0.850394; stroke-linejoin:round; stroke-linecap:round; fill:none" d="M -44.7241 810.938C -44.7241 809.779 -45.6649 808.838 -46.8241 808.838C -47.9832 808.838 -48.9241 809.779 -48.9241 810.938C -48.9241 812.097 -47.9832 813.038 -46.8241 813.038C -45.6649 813.038 -44.7241 812.097 -44.7241 810.938z"/>
<path style="stroke:#000000; stroke-width:0.850394; stroke-linejoin:round; stroke-linecap:round; fill:none" d="M 48.924 810.938C 48.924 809.779 47.9832 808.838 46.8241 808.838C 45.6649 808.838 44.7241 809.779 44.7241 810.938C 44.7241 812.097 45.6649 813.038 46.8241 813.038C 47.9832 813.038 48.924 812.097 48.924 810.938z"/>
<path style="stroke:#000000; stroke-width:0.850394; stroke-linejoin:round; stroke-linecap:round; fill:none" d="M 26.8 748.138C 26.8 746.979 25.8591 746.038 24.7 746.038C 23.5409 746.038 22.6 746.979 22.6 748.138C 22.6 749.297 23.5409 750.238 24.7 750.238C 25.8591 750.238 26.8 749.297 26.8 748.138z"/>
<path style="stroke:#000000; stroke-width:0.850394; stroke-linejoin:round; stroke-linecap:round; fill:none" d="M -22.9 822.99C -22.9 821.831 -23.8409 820.89 -25 820.89C -26.1591 820.89 -27.1 821.831 -27.1 822.99C -27.1 824.149 -26.1591 825.09 -25 825.09C -23.8409 825.09 -22.9 824.149 -22.9 822.99z"/>
<path style="stroke:#000000; stroke-width:0.850394; stroke-linejoin:round; stroke-linecap:round; fill:none" d="M 27.1 822.99C 27.1 821.831 26.1591 820.89 25 820.89C 23.8409 820.89 22.9 821.831 22.9 822.99C 22.9 824.149 23.8409 825.09 25 825.09C 26.1591 825.09 27.1 824.149 27.1 822.99z"/>
<path style="stroke:#000000; stroke-width:0.850394; stroke-linejoin:round; stroke-linecap:round; fill:none" d="M -22.9 748.138C -22.9 746.979 -23.8409 746.038 -25 746.038C -26.1591 746.038 -27.1 746.979 -27.1 748.138C -27.1 749.297 -26.1591 750.238 -25 750.238C -23.8409 750.238 -22.9 749.297 -22.9 748.138z"/>
<path style="stroke:#000000; stroke-width:0.850394; stroke-linejoin:round; stroke-linecap:round; fill:none" d="M 88.6834 785.502C 88.6834 784.66 88.0002 783.977 87.1584 783.977C 86.3167 783.977 85.6334 784.66 85.6334 785.502C 85.6334 786.343 86.3167 787.027 87.1584 787.027C 88.0002 787.027 88.6834 786.343 88.6834 785.502z"/>
<path style="stroke:#000000; stroke-width:0.850394; stroke-linejoin:round; stroke-linecap:round; fill:none" d="M 83.971 771.799C 83.971 770.971 83.299 770.299 82.471 770.299C 81.6431 770.299 80.971 770.971 80.971 771.799C 80.971 772.627 81.6431 773.299 82.471 773.299C 83.299 773.299 83.971 772.627 83.971 771.799z"/>
<path style="stroke:#000000; stroke-width:0.850394; stroke-linejoin:round; stroke-linecap:round; fill:none" d="M 42.5117 772.961C 43.1412 773.498 44.0887 773.424 44.6265 772.794C 45.1642 772.165 45.0897 771.217 44.4602 770.68C 43.8306 770.142 42.8832 770.216 42.3454 770.846C 41.8076 771.475 41.8821 772.423 42.5117 772.961z"/>
<path style="stroke:#000000; stroke-width:0.850394; stroke-linejoin:round; stroke-linecap:round; fill:none" d="M -48.6152 771.798C -48.6152 770.97 -49.2872 770.298 -50.1152 770.298C -50.9432 770.298 -51.6152 770.97 -51.6152 771.798C -51.6152 772.626 -50.9432 773.298 -50.1152 773.298C -49.2872 773.298 -48.6152 772.626 -48.6152 771.798z"/>
<path style="stroke:#000000; stroke-width:0.850394; stroke-linejoin:round; stroke-linecap:round; fill:none" d="M -11.7865 816.961C -11.7865 816.133 -12.4586 815.461 -13.2865 815.461C -14.1145 815.461 -14.7865 816.133 -14.7865 816.961C -14.7865 817.789 -14.1145 818.461 -13.2865 818.461C -12.4586 818.461 -11.7865 817.789 -11.7865 816.961z"/>
</g>
</svg>