0
SECTION
2
HEADER
9
$INSUNITS
70
4
9
$ACADVER
1
AC1014
9
$HANDSEED
5
FFFF
0
ENDSEC
0
SECTION
2
TABLES
0
TABLE
2
VPORT
5
8
100
AcDbSymbolTable
0
ENDTAB
0
TABLE
2
LTYPE
5
5
100
AcDbSymbolTable
0
LTYPE
5
14
100
AcDbSymbolTableRecord
100
AcDbLinetypeTableRecord
2
BYBLOCK
70
0
0
LTYPE
5
15
100
AcDbSymbolTableRecord
100
AcDbLinetypeTableRecord
2
BYLAYER
70
0
0
ENDTAB
0
TABLE
2
LAYER
5
2
100
AcDbSymbolTable
70
2
0
LAYER
5
50
100
AcDbSymbolTableRecord
100
AcDbLayerTableRecord
2
0
70
0
6
CONTINUOUS
0
ENDTAB
0
TABLE
2
STYLE
5
3
100
AcDbSymbolTable
70
1
0
STYLE
5
11
100
AcDbSymbolTableRecord
100
AcDbTextStyleTableRecord
2
STANDARD
70
0
0
ENDTAB
0
TABLE
2
VIEW
5
6
100
AcDbSymbolTable
70
0
0
ENDTAB
0
TABLE
2
UCS
5
7
100
AcDbSymbolTable
70
0
0
ENDTAB
0
TABLE
2
APPID
5
9
100
AcDbSymbolTable
70
2
0
APPID
5
12
100
AcDbSymbolTableRecord
100
AcDbRegAppTableRecord
2
ACAD
70
0
0
ENDTAB
0
TABLE
2
DIMSTYLE
5
A
100
AcDbSymbolTable
70
1
0
ENDTAB
0
TABLE
2
BLOCK_RECORD
5
1
100
AcDbSymbolTable
70
1
0
BLOCK_RECORD
5
1F
100
AcDbSymbolTableRecord
100
AcDbBlockTableRecord
2
*MODEL_SPACE
0
BLOCK_RECORD
5
1B
100
AcDbSymbolTableRecord
100
AcDbBlockTableRecord
2
*PAPER_SPACE
0
ENDTAB
0
ENDSEC
0
SECTION
2
BLOCKS
0
BLOCK
5
20
100
AcDbEntity
100
AcDbBlockBegin
2
*MODEL_SPACE
0
ENDBLK
5
21
100
AcDbEntity
100
AcDbBlockEnd
0
BLOCK
5
1C
100
AcDbEntity
100
AcDbBlockBegin
2
*PAPER_SPACE
0
ENDBLK
5
1D
100
AcDbEntity
100
AcDbBlockEnd
0
ENDSEC
0
SECTION
2
ENTITIES
0
LWPOLYLINE
5
100
100
AcDbEntity
8
0
100
AcDbPolyline
90
43
70
1
43
0.0
10
-94.456253051757812
20
-46.505126953124964
10
-94.456253051757812
20
76.746826171875028
10
-94.21295166015625
20
79.781799316406278
10
-93.489303588867188
20
82.738952636718778
10
-92.30377197265625
20
85.543212890625028
10
-90.686721801757812
20
88.122863769531278
10
-88.679275512695312
20
90.411682128906278
10
-86.332855224609375
20
92.351684570312528
10
-31.655381103185501
20
130.63720179568517
42
-0.15391452531537028
10
-23.051743955954006
20
133.34991455078125
10
23.051743955953995
20
133.34991455078125
42
-0.15391452531537061
10
31.655381103185487
20
130.63720179568517
10
86.332855224609375
20
92.351684570312528
10
88.679275512695312
20
90.411682128906278
10
90.6866455078125
20
88.122863769531278
10
92.30377197265625
20
85.543212890625028
10
93.489303588867188
20
82.738952636718778
10
94.21295166015625
20
79.781799316406278
10
94.456253051757812
20
76.746826171875028
10
94.456253051757812
20
-46.505126953124964
10
94.255142211914062
20
-49.266052246093714
10
93.655929565429688
20
-51.968688964843714
10
92.671432495117188
20
-54.555969238281214
10
66.68060302734375
20
-110.29327392578122
10
65.39215087890625
20
-112.61779785156247
10
63.792648315429688
20
-114.74029541015622
10
61.913375854492188
20
-116.61956787109372
10
59.790802001953125
20
-118.21899414062497
10
57.466354370117188
20
-119.50775146484372
10
53.187408447265625
20
-121.50299072265622
10
29.790433671691989
20
-132.41301655763439
42
-0.10951636675460864
10
25.564302815533612
20
-133.34991455078122
10
-25.564308076268695
20
-133.34991455078122
42
-0.10951611303272475
10
-29.790429843407825
20
-132.41302079584494
10
-57.466354370117188
20
-119.50775146484372
10
-59.790802001953125
20
-118.21899414062497
10
-61.913375854492188
20
-116.61956787109372
10
-63.792648315429688
20
-114.74029541015622
10
-65.39215087890625
20
-112.61779785156247
10
-66.68060302734375
20
-110.29327392578122
10
-92.671432495117188
20
-54.555969238281214
10
-93.655929565429688
20
-51.968688964843714
10
-94.255142211914062
20
-49.266052246093714
0
CIRCLE
5
101
100
AcDbEntity
8
0
100
AcDbCircle
10
31.124301376219528
20
-116.12759229030971
30
0
40
1.5249999999999986
210
0
220
0
230
1
0
CIRCLE
5
102
100
AcDbEntity
8
0
100
AcDbCircle
10
-31.124017761230469
20
-116.12759229030971
30
0
40
1.5249999999999986
210
0
220
0
230
1
0
CIRCLE
5
103
100
AcDbEntity
8
0
100
AcDbCircle
10
-87.126684690837649
20
-29.463958740234339
30
0
40
1.5249999999999986
210
0
220
0
230
1
0
CIRCLE
5
104
100
AcDbEntity
8
0
100
AcDbCircle
10
87.158417885309532
20
-29.463958740234339
30
0
40
1.5249999999999986
210
0
220
0
230
1
0
CIRCLE
5
105
100
AcDbEntity
8
0
100
AcDbCircle
10
-87.126684690837635
20
56.388092041015661
30
0
40
1.5249999999999986
210
0
220
0
230
1
0
CIRCLE
5
106
100
AcDbEntity
8
0
100
AcDbCircle
10
87.158417885309532
20
56.388092041015661
30
0
40
1.5249999999999986
210
0
220
0
230
1
0
CIRCLE
5
107
100
AcDbEntity
8
0
100
AcDbCircle
10
31.124301376219528
20
-116.12759229030971
30
0
40
1.5249999999999986
210
0
220
0
230
1
0
CIRCLE
5
108
100
AcDbEntity
8
0
100
AcDbCircle
10
-31.124017761230469
20
-116.12759229030971
30
0
40
1.5249999999999986
210
0
220
0
230
1
0
CIRCLE
5
109
100
AcDbEntity
8
0
100
AcDbCircle
10
-87.126684690837649
20
-29.463958740234339
30
0
40
1.5249999999999986
210
0
220
0
230
1
0
CIRCLE
5
110
100
AcDbEntity
8
0
100
AcDbCircle
10
87.158417885309532
20
-29.463958740234339
30
0
40
1.5249999999999986
210
0
220
0
230
1
0
CIRCLE
5
111
100
AcDbEntity
8
0
100
AcDbCircle
10
-87.126684690837635
20
56.388092041015661
30
0
40
1.5249999999999986
210
0
220
0
230
1
0
CIRCLE
5
112
100
AcDbEntity
8
0
100
AcDbCircle
10
87.158417885309532
20
56.388092041015661
30
0
40
1.5249999999999986
210
0
220
0
230
1
0
LWPOLYLINE
5
113
100
AcDbEntity
8
0
100
AcDbPolyline
90
43
70
1
43
0.0
10
-94.456253051757812
20
-46.505126953124964
10
-94.456253051757812
20
76.746826171875028
10
-94.21295166015625
20
79.781799316406278
10
-93.489303588867188
20
82.738952636718778
10
-92.30377197265625
20
85.543212890625028
10
-90.686721801757812
20
88.122863769531278
10
-88.679275512695312
20
90.411682128906278
10
-86.332855224609375
20
92.351684570312528
10
-31.655381103185505
20
130.63720179568517
42
-0.15391452531536959
10
-23.051743955954009
20
133.34991455078125
10
23.051743955953988
20
133.34991455078128
42
-0.1539145253153705
10
31.655381103185487
20
130.63720179568517
10
86.332855224609375
20
92.351684570312528
10
88.679275512695312
20
90.411682128906278
10
90.6866455078125
20
88.122863769531278
10
92.30377197265625
20
85.543212890625028
10
93.489303588867188
20
82.738952636718778
10
94.21295166015625
20
79.781799316406278
10
94.456253051757812
20
76.746826171875028
10
94.456253051757812
20
-46.505126953124964
10
94.255142211914062
20
-49.266052246093714
10
93.655929565429688
20
-51.968688964843714
10
92.671432495117188
20
-54.555969238281214
10
66.68060302734375
20
-110.29327392578122
10
65.39215087890625
20
-112.61779785156247
10
63.792648315429688
20
-114.74029541015622
10
61.913375854492188
20
-116.61956787109372
10
59.790802001953125
20
-118.21899414062497
10
57.466354370117188
20
-119.50775146484372
10
53.187408447265625
20
-121.50299072265622
10
29.790433671691986
20
-132.41301655763439
42
-0.10951636675461034
10
25.564302815533612
20
-133.34991455078122
10
-25.564308076268695
20
-133.34991455078119
42
-0.10951611303272453
10
-29.790429843407825
20
-132.41302079584494
10
-57.466354370117188
20
-119.50775146484372
10
-59.790802001953125
20
-118.21899414062497
10
-61.913375854492188
20
-116.61956787109372
10
-63.792648315429688
20
-114.74029541015622
10
-65.39215087890625
20
-112.61779785156247
10
-66.68060302734375
20
-110.29327392578122
10
-92.671432495117188
20
-54.555969238281214
10
-93.655929565429688
20
-51.968688964843714
10
-94.255142211914062
20
-49.266052246093714
0
CIRCLE
5
114
100
AcDbEntity
8
0
100
AcDbCircle
10
23.051743955953956
20
118.34991455078112
30
0
40
1.5249999999999986
210
0
220
0
230
1
0
CIRCLE
5
115
100
AcDbEntity
8
0
100
AcDbCircle
10
-23.051743955953945
20
118.34991455078104
30
0
40
1.5249999999999999
210
0
220
0
230
1
0
ENDSEC
0
SECTION
2
OBJECTS
0
DICTIONARY
5
C
100
AcDbDictionary
3
ACAD_GROUP
350
D
3
ACAD_MLINESTYLE
350
17
0
DICTIONARY
5
D
100
AcDbDictionary
0
DICTIONARY
5
1A
330
C
100
AcDbDictionary
0
DICTIONARY
5
17
100
AcDbDictionary
0
ENDSEC
0
EOF
