<?xml version="1.0" encoding="UTF-8" standalone="yes"?>
<!-- Created with sK1/UniConvertor (http://sk1project.org/) -->
<svg xmlns="http://www.w3.org/2000/svg" xmlns:xlink="http://www.w3.org/1999/xlink"
  width="595.276pt" height="841.89pt" viewBox="0 0 595.276 841.89"
  fill-rule="evenodd">
<g>
<path style="stroke:#000000; stroke-width:0.850394; stroke-linejoin:round; stroke-linecap:round; fill:none" d="M -94.4563 888.395L -94.4563 765.143L -94.213 762.108L -93.4893 759.151L -92.3038 756.347L -90.6867 753.767L -88.6793 751.478L -86.3329 749.538L -31.6554 711.253L -23.0517 708.54L 23.0517 708.54L 31.6554 711.253L 86.3329 749.538L 88.6793 751.478L 90.6866 753.767L 92.3038 756.347L 93.4893 759.151L 94.213 762.108L 94.4563 765.143L 94.4563 888.395L 94.2551 891.156L 93.6559 893.858L 92.6714 896.446L 79.676 924.314L 79.676 965.24L 69.676 975.24L -69.676 975.24L -79.676 965.24L -79.676 924.314L -92.6714 896.446L -93.6559 893.858L -94.2551 891.156L -94.4563 888.395z"/>
<path style="stroke:#000000; stroke-width:0.850394; stroke-linejoin:round; stroke-linecap:round; fill:none" d="M 32.6493 958.017C 32.6493 957.176 31.9661 956.492 31.1243 956.492C 30.2825 956.492 29.5993 957.176 29.5993 958.017C 29.5993 958.859 30.2825 959.542 31.1243 959.542C 31.9661 959.542 32.6493 958.859 32.6493 958.017z"/>
<path style="stroke:#000000; stroke-width:0.850394; stroke-linejoin:round; stroke-linecap:round; fill:none" d="M -29.599 958.017C -29.599 957.176 -30.2823 956.492 -31.124 956.492C -31.9658 956.492 -32.649 957.176 -32.649 958.017C -32.649 958.859 -31.9658 959.542 -31.124 959.542C -30.2823 959.542 -29.599 958.859 -29.599 958.017z"/>
<path style="stroke:#000000; stroke-width:0.850394; stroke-linejoin:round; stroke-linecap:round; fill:none" d="M -85.6017 871.354C -85.6017 870.512 -86.2849 869.829 -87.1267 869.829C -87.9684 869.829 -88.6517 870.512 -88.6517 871.354C -88.6517 872.195 -87.9684 872.879 -87.1267 872.879C -86.2849 872.879 -85.6017 872.195 -85.6017 871.354z"/>
<path style="stroke:#000000; stroke-width:0.850394; stroke-linejoin:round; stroke-linecap:round; fill:none" d="M 88.6834 871.354C 88.6834 870.512 88.0002 869.829 87.1584 869.829C 86.3167 869.829 85.6334 870.512 85.6334 871.354C 85.6334 872.195 86.3167 872.879 87.1584 872.879C 88.0002 872.879 88.6834 872.195 88.6834 871.354z"/>
<path style="stroke:#000000; stroke-width:0.850394; stroke-linejoin:round; stroke-linecap:round; fill:none" d="M -85.6017 785.502C -85.6017 784.66 -86.2849 783.977 -87.1267 783.977C -87.9684 783.977 -88.6517 784.66 -88.6517 785.502C -88.6517 786.343 -87.9684 787.027 -87.1267 787.027C -86.2849 787.027 -85.6017 786.343 -85.6017 785.502z"/>
<path style="stroke:#000000; stroke-width:0.850394; stroke-linejoin:round; stroke-linecap:round; fill:none" d="M 88.6834 785.502C 88.6834 784.66 88.0002 783.977 87.1584 783.977C 86.3167 783.977 85.6334 784.66 85.6334 785.502C 85.6334 786.343 86.3167 787.027 87.1584 787.027C 88.0002 787.027 88.6834 786.343 88.6834 785.502z"/>
<path style="stroke:#000000; stroke-width:0.850394; stroke-linejoin:round; stroke-linecap:round; fill:none" d="M 24.5767 723.54C 24.5767 722.698 23.8935 722.015 23.0517 722.015C 22.21 722.015 21.5267 722.698 21.5267 723.54C 21.5267 724.382 22.21 725.065 23.0517 725.065C 23.8935 725.065 24.5767 724.382 24.5767 723.54z"/>
<path style="stroke:#000000; stroke-width:0.850394; stroke-linejoin:round; stroke-linecap:round; fill:none" d="M -21.5267 723.54C -21.5267 722.698 -22.21 722.015 -23.0517 722.015C -23.8935 722.015 -24.5767 722.698 -24.5767 723.54C -24.5767 724.382 -23.8935 725.065 -23.0517 725.065C -22.21 725.065 -21.5267 724.382 -21.5267 723.54z"/>
</g>
</svg>