<?xml version="1.0" encoding="UTF-8" standalone="yes"?>
<!-- Created with sK1/UniConvertor (http://sk1project.org/) -->
<svg xmlns="http://www.w3.org/2000/svg" xmlns:xlink="http://www.w3.org/1999/xlink"
  width="595.276pt" height="841.89pt" viewBox="0 0 595.276 841.89"
  fill-rule="evenodd">
<g>
<path style="stroke:#000000; stroke-width:0.850394; stroke-linejoin:round; stroke-linecap:round; fill:none" d="M 58.8902 941.088L 59.3251 940.754"/>
<path style="stroke:#000000; stroke-width:0.850394; stroke-linejoin:round; stroke-linecap:round; fill:none" d="M 59.3251 940.754L 59.8316 940.545"/>
<path style="stroke:#000000; stroke-width:0.850394; stroke-linejoin:round; stroke-linecap:round; fill:none" d="M 59.8316 940.545L 60.3751 940.473"/>
<path style="stroke:#000000; stroke-width:0.850394; stroke-linejoin:round; stroke-linecap:round; fill:none" d="M 60.3751 940.473L 60.9187 940.545"/>
<path style="stroke:#000000; stroke-width:0.850394; stroke-linejoin:round; stroke-linecap:round; fill:none" d="M 60.9187 940.545L 61.4251 940.754"/>
<path style="stroke:#000000; stroke-width:0.850394; stroke-linejoin:round; stroke-linecap:round; fill:none" d="M 61.4251 940.754L 61.86 941.088"/>
<path style="stroke:#000000; stroke-width:0.850394; stroke-linejoin:round; stroke-linecap:round; fill:none" d="M 61.8599 941.089C 61.8598 941.088 61.8598 941.088 61.8598 941.088"/>
<path style="stroke:#000000; stroke-width:0.850394; stroke-linejoin:round; stroke-linecap:round; fill:none" d="M 61.8601 941.088L 62.1938 941.523"/>
<path style="stroke:#000000; stroke-width:0.850394; stroke-linejoin:round; stroke-linecap:round; fill:none" d="M 62.1938 941.523L 62.4035 942.029"/>
<path style="stroke:#000000; stroke-width:0.850394; stroke-linejoin:round; stroke-linecap:round; fill:none" d="M 62.404 942.03C 62.404 942.03 62.404 942.029 62.404 942.029"/>
<path style="stroke:#000000; stroke-width:0.850394; stroke-linejoin:round; stroke-linecap:round; fill:none" d="M 62.4036 942.03L 62.4751 942.573"/>
<path style="stroke:#000000; stroke-width:0.850394; stroke-linejoin:round; stroke-linecap:round; fill:none" d="M 62.4751 942.573C 62.4751 942.573 62.4751 942.573 62.4751 942.573C 62.4751 942.573 62.4751 942.573 62.4751 942.573"/>
<path style="stroke:#000000; stroke-width:0.850394; stroke-linejoin:round; stroke-linecap:round; fill:none" d="M 62.4751 942.573L 62.4036 943.117"/>
<path style="stroke:#000000; stroke-width:0.850394; stroke-linejoin:round; stroke-linecap:round; fill:none" d="M 62.4039 943.117C 62.404 943.117 62.404 943.117 62.404 943.117"/>
<path style="stroke:#000000; stroke-width:0.850394; stroke-linejoin:round; stroke-linecap:round; fill:none" d="M 62.4035 943.117L 62.1938 943.623"/>
<path style="stroke:#000000; stroke-width:0.850394; stroke-linejoin:round; stroke-linecap:round; fill:none" d="M 62.1938 943.623L 61.8601 944.058"/>
<path style="stroke:#000000; stroke-width:0.850394; stroke-linejoin:round; stroke-linecap:round; fill:none" d="M 61.8597 944.058C 61.8598 944.058 61.8598 944.058 61.8599 944.058"/>
<path style="stroke:#000000; stroke-width:0.850394; stroke-linejoin:round; stroke-linecap:round; fill:none" d="M 61.86 944.058L 61.4251 944.392"/>
<path style="stroke:#000000; stroke-width:0.850394; stroke-linejoin:round; stroke-linecap:round; fill:none" d="M 61.4251 944.392L 60.9188 944.602"/>
<path style="stroke:#000000; stroke-width:0.850394; stroke-linejoin:round; stroke-linecap:round; fill:none" d="M 60.9187 944.602C 60.9187 944.602 60.9188 944.602 60.9189 944.602"/>
<path style="stroke:#000000; stroke-width:0.850394; stroke-linejoin:round; stroke-linecap:round; fill:none" d="M 60.9186 944.602L 60.3751 944.673"/>
<path style="stroke:#000000; stroke-width:0.850394; stroke-linejoin:round; stroke-linecap:round; fill:none" d="M 60.3751 944.673"/>
<path style="stroke:#000000; stroke-width:0.850394; stroke-linejoin:round; stroke-linecap:round; fill:none" d="M 60.3751 944.673L 59.8316 944.602"/>
<path style="stroke:#000000; stroke-width:0.850394; stroke-linejoin:round; stroke-linecap:round; fill:none" d="M 59.8316 944.602L 59.3251 944.392"/>
<path style="stroke:#000000; stroke-width:0.850394; stroke-linejoin:round; stroke-linecap:round; fill:none" d="M 59.3251 944.392L 58.8902 944.058"/>
<path style="stroke:#000000; stroke-width:0.850394; stroke-linejoin:round; stroke-linecap:round; fill:none" d="M 58.8902 944.058L 58.5565 943.623"/>
<path style="stroke:#000000; stroke-width:0.850394; stroke-linejoin:round; stroke-linecap:round; fill:none" d="M 58.5564 943.623C 58.5564 943.623 58.5564 943.623 58.5565 943.623"/>
<path style="stroke:#000000; stroke-width:0.850394; stroke-linejoin:round; stroke-linecap:round; fill:none" d="M 58.5564 943.623L 58.3467 943.117"/>
<path style="stroke:#000000; stroke-width:0.850394; stroke-linejoin:round; stroke-linecap:round; fill:none" d="M 58.3467 943.117L 58.2751 942.573"/>
<path style="stroke:#000000; stroke-width:0.850394; stroke-linejoin:round; stroke-linecap:round; fill:none" d="M 58.2751 942.573L 58.3467 942.03"/>
<path style="stroke:#000000; stroke-width:0.850394; stroke-linejoin:round; stroke-linecap:round; fill:none" d="M 58.3467 942.03L 58.5565 941.523"/>
<path style="stroke:#000000; stroke-width:0.850394; stroke-linejoin:round; stroke-linecap:round; fill:none" d="M 58.5565 941.523L 58.8902 941.088"/>
<path style="stroke:#000000; stroke-width:0.850394; stroke-linejoin:round; stroke-linecap:round; fill:none" d="M -61.8673 912.239L -62.201 911.805"/>
<path style="stroke:#000000; stroke-width:0.850394; stroke-linejoin:round; stroke-linecap:round; fill:none" d="M -62.201 911.805L -62.4108 911.298"/>
<path style="stroke:#000000; stroke-width:0.850394; stroke-linejoin:round; stroke-linecap:round; fill:none" d="M -62.4108 911.298L -62.4823 910.755"/>
<path style="stroke:#000000; stroke-width:0.850394; stroke-linejoin:round; stroke-linecap:round; fill:none" d="M -62.4823 910.754C -62.4823 910.754 -62.4823 910.755 -62.4823 910.755C -62.4823 910.755 -62.4823 910.755 -62.4823 910.755"/>
<path style="stroke:#000000; stroke-width:0.850394; stroke-linejoin:round; stroke-linecap:round; fill:none" d="M -62.4823 910.754L -62.4108 910.211"/>
<path style="stroke:#000000; stroke-width:0.850394; stroke-linejoin:round; stroke-linecap:round; fill:none" d="M -62.4108 910.211L -62.201 909.705"/>
<path style="stroke:#000000; stroke-width:0.850394; stroke-linejoin:round; stroke-linecap:round; fill:none" d="M -62.201 909.705L -61.8673 909.27"/>
<path style="stroke:#000000; stroke-width:0.850394; stroke-linejoin:round; stroke-linecap:round; fill:none" d="M -61.8673 909.27L -61.4323 908.936"/>
<path style="stroke:#000000; stroke-width:0.850394; stroke-linejoin:round; stroke-linecap:round; fill:none" d="M -61.4323 908.936L -60.9259 908.726"/>
<path style="stroke:#000000; stroke-width:0.850394; stroke-linejoin:round; stroke-linecap:round; fill:none" d="M -60.9259 908.726L -60.3823 908.655"/>
<path style="stroke:#000000; stroke-width:0.850394; stroke-linejoin:round; stroke-linecap:round; fill:none" d="M -60.3823 908.655L -59.8388 908.726"/>
<path style="stroke:#000000; stroke-width:0.850394; stroke-linejoin:round; stroke-linecap:round; fill:none" d="M -59.8388 908.726L -59.3323 908.936"/>
<path style="stroke:#000000; stroke-width:0.850394; stroke-linejoin:round; stroke-linecap:round; fill:none" d="M -59.3323 908.936L -58.8974 909.27"/>
<path style="stroke:#000000; stroke-width:0.850394; stroke-linejoin:round; stroke-linecap:round; fill:none" d="M -58.8974 909.27L -58.5637 909.705"/>
<path style="stroke:#000000; stroke-width:0.850394; stroke-linejoin:round; stroke-linecap:round; fill:none" d="M -58.5637 909.705L -58.3539 910.211"/>
<path style="stroke:#000000; stroke-width:0.850394; stroke-linejoin:round; stroke-linecap:round; fill:none" d="M -58.3539 910.211L -58.2823 910.755"/>
<path style="stroke:#000000; stroke-width:0.850394; stroke-linejoin:round; stroke-linecap:round; fill:none" d="M -58.2823 910.755L -58.3539 911.298"/>
<path style="stroke:#000000; stroke-width:0.850394; stroke-linejoin:round; stroke-linecap:round; fill:none" d="M -58.3539 911.298L -58.5637 911.805"/>
<path style="stroke:#000000; stroke-width:0.850394; stroke-linejoin:round; stroke-linecap:round; fill:none" d="M -58.5637 911.805L -58.8974 912.239"/>
<path style="stroke:#000000; stroke-width:0.850394; stroke-linejoin:round; stroke-linecap:round; fill:none" d="M -58.8974 912.239L -59.3323 912.573"/>
<path style="stroke:#000000; stroke-width:0.850394; stroke-linejoin:round; stroke-linecap:round; fill:none" d="M -59.3323 912.573L -59.8388 912.783"/>
<path style="stroke:#000000; stroke-width:0.850394; stroke-linejoin:round; stroke-linecap:round; fill:none" d="M -59.8388 912.783L -60.3823 912.855"/>
<path style="stroke:#000000; stroke-width:0.850394; stroke-linejoin:round; stroke-linecap:round; fill:none" d="M -60.3823 912.855L -60.9259 912.783"/>
<path style="stroke:#000000; stroke-width:0.850394; stroke-linejoin:round; stroke-linecap:round; fill:none" d="M -60.9259 912.783L -61.4323 912.573"/>
<path style="stroke:#000000; stroke-width:0.850394; stroke-linejoin:round; stroke-linecap:round; fill:none" d="M -61.4323 912.573L -61.8673 912.239"/>
<path style="stroke:#000000; stroke-width:0.850394; stroke-linejoin:round; stroke-linecap:round; fill:none" d="M -61.8671 912.239C -61.8671 912.239 -61.867 912.239 -61.867 912.239"/>
<path style="stroke:#000000; stroke-width:0.850394; stroke-linejoin:round; stroke-linecap:round; fill:none" d="M 59.3273 912.267L 59.8338 912.477L 60.3773 912.548L 60.9209 912.477L 61.4273 912.267L 61.8623 911.933L 62.196 911.498L 62.4058 910.992L 62.4773 910.448L 62.4058 909.905L 62.196 909.398L 61.8623 908.963L 61.4273 908.63L 60.9209 908.42L 60.3773 908.348L 59.8338 908.42L 59.3273 908.63L 58.8924 908.963L 58.5587 909.398L 58.5586 909.398L 58.3489 909.905L 58.2773 910.448L 58.3489 910.992L 58.5586 911.498L 58.5587 911.498L 58.8924 911.933L 59.3273 912.267z"/>
<path style="stroke:#000000; stroke-width:0.850394; stroke-linejoin:round; stroke-linecap:round; fill:none" d="M -60.3801 880.73L -59.8366 880.658L -59.3301 880.448L -58.8952 880.115L -58.5615 879.68L -58.3517 879.173L -58.2801 878.63L -58.3517 878.086L -58.5615 877.58L -58.8952 877.145L -59.3301 876.811L -59.8366 876.601L -60.3801 876.53L -60.9236 876.601L -60.9238 876.601L -61.4301 876.811L -61.865 877.145L -61.8651 877.145L -62.1988 877.58L -62.4086 878.086L -62.4086 878.086L -62.4801 878.63L -62.4801 878.63L -62.4086 879.173L -62.4086 879.173L -62.1988 879.68L -61.8651 880.115L -61.865 880.115L -61.4301 880.448L -60.9238 880.658L -60.9236 880.658L -60.3801 880.73z"/>
<path style="stroke:#000000; stroke-width:0.850394; stroke-linejoin:round; stroke-linecap:round; fill:none" d="M -61.8695 941.394L -61.8694 941.394L -61.4345 941.061L -60.9282 940.851L -60.9279 940.851L -60.3846 940.779L -60.3844 940.779L -59.8411 940.851L -59.8409 940.851L -59.3347 941.061L -59.3344 941.061L -58.8997 941.394L -58.8995 941.394L -58.566 941.829L -58.5658 941.829L -58.3561 942.336L -58.2845 942.879L -58.2845 942.879L -58.3561 943.423L -58.5658 943.929L -58.5659 943.929L -58.8996 944.364L -59.3345 944.698L -59.841 944.908L -60.3845 944.979L -60.9281 944.908L -61.4345 944.698L -61.8695 944.364L -62.2032 943.929L -62.413 943.423L -62.4845 942.879L -62.4845 942.879L -62.413 942.336L -62.2032 941.829L -61.8695 941.394z"/>
<path style="stroke:#000000; stroke-width:0.850394; stroke-linejoin:round; stroke-linecap:round; fill:none" d="M 59.3295 880.142L 59.836 880.352L 60.3795 880.424L 60.9231 880.352L 61.4295 880.142L 61.8644 879.809L 62.1982 879.374L 62.408 878.867L 62.4795 878.324L 62.4795 878.324L 62.408 877.78L 62.1982 877.274L 61.8644 876.839L 61.4295 876.505L 60.9231 876.295L 60.3795 876.224L 59.836 876.295L 59.3295 876.505L 58.8946 876.839L 58.5608 877.274L 58.3511 877.78L 58.2795 878.324L 58.3511 878.867L 58.5608 879.374L 58.8946 879.809L 59.3295 880.142z"/>
<path style="stroke:#000000; stroke-width:0.850394; stroke-linejoin:round; stroke-linecap:round; fill:none" d="M 23.0453 821.581L -23.4547 821.581L -25.9547 824.081L -25.9547 829.081L -23.4547 831.581L 23.0453 831.581L 25.5453 829.081L 25.5453 824.081L 23.0453 821.581z"/>
<path style="stroke:#000000; stroke-width:0.850394; stroke-linejoin:round; stroke-linecap:round; fill:none" d="M 79.676 965.24L 69.676 975.24L -69.676 975.24L -79.676 965.24L -79.676 924.314L -92.6714 896.446L -93.6559 893.858L -94.2551 891.156L -94.4563 888.395L -94.4563 765.143L -94.213 762.108L -93.4893 759.151L -92.3038 756.347L -90.6867 753.767L -88.6793 751.478L -86.3329 749.538L -31.6554 711.253L -23.0517 708.54L 23.0517 708.54L 31.6554 711.253L 86.3329 749.538L 88.6793 751.478L 90.6866 753.767L 92.3038 756.347L 93.4893 759.151L 94.213 762.108L 94.4563 765.143L 94.4563 888.395L 94.2551 891.156L 93.6559 893.858L 92.6714 896.446L 79.676 924.314L 79.676 965.24z"/>
<path style="stroke:#000000; stroke-width:0.850394; stroke-linejoin:round; stroke-linecap:round; fill:none" d="M 24.5767 723.54C 24.5767 722.698 23.8935 722.015 23.0517 722.015C 22.21 722.015 21.5267 722.698 21.5267 723.54C 21.5267 724.382 22.21 725.065 23.0517 725.065C 23.8935 725.065 24.5767 724.382 24.5767 723.54z"/>
<path style="stroke:#000000; stroke-width:0.850394; stroke-linejoin:round; stroke-linecap:round; fill:none" d="M -21.5267 723.54C -21.5267 722.698 -22.21 722.015 -23.0517 722.015C -23.8935 722.015 -24.5767 722.698 -24.5767 723.54C -24.5767 724.382 -23.8935 725.065 -23.0517 725.065C -22.21 725.065 -21.5267 724.382 -21.5267 723.54z"/>
<path style="stroke:#000000; stroke-width:0.850394; stroke-linejoin:round; stroke-linecap:round; fill:none" d="M -29.599 958.017C -29.599 957.176 -30.2823 956.492 -31.124 956.492C -31.9658 956.492 -32.649 957.176 -32.649 958.017C -32.649 958.859 -31.9658 959.542 -31.124 959.542C -30.2823 959.542 -29.599 958.859 -29.599 958.017z"/>
<path style="stroke:#000000; stroke-width:0.850394; stroke-linejoin:round; stroke-linecap:round; fill:none" d="M 32.6493 958.017C 32.6493 957.176 31.9661 956.492 31.1243 956.492C 30.2825 956.492 29.5993 957.176 29.5993 958.017C 29.5993 958.859 30.2825 959.542 31.1243 959.542C 31.9661 959.542 32.6493 958.859 32.6493 958.017z"/>
<path style="stroke:#000000; stroke-width:0.850394; stroke-linejoin:round; stroke-linecap:round; fill:none" d="M 88.6834 871.354C 88.6834 870.512 88.0002 869.829 87.1584 869.829C 86.3167 869.829 85.6334 870.512 85.6334 871.354C 85.6334 872.195 86.3167 872.879 87.1584 872.879C 88.0002 872.879 88.6834 872.195 88.6834 871.354z"/>
<path style="stroke:#000000; stroke-width:0.850394; stroke-linejoin:round; stroke-linecap:round; fill:none" d="M 88.6834 785.502C 88.6834 784.66 88.0002 783.977 87.1584 783.977C 86.3167 783.977 85.6334 784.66 85.6334 785.502C 85.6334 786.343 86.3167 787.027 87.1584 787.027C 88.0002 787.027 88.6834 786.343 88.6834 785.502z"/>
<path style="stroke:#000000; stroke-width:0.850394; stroke-linejoin:round; stroke-linecap:round; fill:none" d="M -50.4 748.138C -50.4 746.979 -51.3409 746.038 -52.5 746.038C -53.6591 746.038 -54.6 746.979 -54.6 748.138C -54.6 749.297 -53.6591 750.238 -52.5 750.238C -51.3409 750.238 -50.4 749.297 -50.4 748.138z"/>
<path style="stroke:#000000; stroke-width:0.850394; stroke-linejoin:round; stroke-linecap:round; fill:none" d="M 54.3 748.138C 54.3 746.979 53.3591 746.038 52.2 746.038C 51.0408 746.038 50.1 746.979 50.1 748.138C 50.1 749.297 51.0408 750.238 52.2 750.238C 53.3591 750.238 54.3 749.297 54.3 748.138z"/>
<path style="stroke:#000000; stroke-width:0.850394; stroke-linejoin:round; stroke-linecap:round; fill:none" d="M 48.924 810.938C 48.924 809.779 47.9832 808.838 46.8241 808.838C 45.6649 808.838 44.7241 809.779 44.7241 810.938C 44.7241 812.097 45.6649 813.038 46.8241 813.038C 47.9832 813.038 48.924 812.097 48.924 810.938z"/>
<path style="stroke:#000000; stroke-width:0.850394; stroke-linejoin:round; stroke-linecap:round; fill:none" d="M -44.7241 810.938C -44.7241 809.779 -45.6649 808.838 -46.8241 808.838C -47.9832 808.838 -48.9241 809.779 -48.9241 810.938C -48.9241 812.097 -47.9832 813.038 -46.8241 813.038C -45.6649 813.038 -44.7241 812.097 -44.7241 810.938z"/>
<path style="stroke:#000000; stroke-width:0.850394; stroke-linejoin:round; stroke-linecap:round; fill:none" d="M -85.6017 785.502C -85.6017 784.66 -86.2849 783.977 -87.1267 783.977C -87.9684 783.977 -88.6517 784.66 -88.6517 785.502C -88.6517 786.343 -87.9684 787.027 -87.1267 787.027C -86.2849 787.027 -85.6017 786.343 -85.6017 785.502z"/>
<path style="stroke:#000000; stroke-width:0.850394; stroke-linejoin:round; stroke-linecap:round; fill:none" d="M -85.6017 871.354C -85.6017 870.512 -86.2849 869.829 -87.1267 869.829C -87.9684 869.829 -88.6517 870.512 -88.6517 871.354C -88.6517 872.195 -87.9684 872.879 -87.1267 872.879C -86.2849 872.879 -85.6017 872.195 -85.6017 871.354z"/>
</g>
</svg>