0
SECTION
2
HEADER
9
$INSUNITS
70
4
9
$ACADVER
1
AC1014
9
$HANDSEED
5
FFFF
0
ENDSEC
0
SECTION
2
TABLES
0
TABLE
2
VPORT
5
8
100
AcDbSymbolTable
0
ENDTAB
0
TABLE
2
LTYPE
5
5
100
AcDbSymbolTable
0
LTYPE
5
14
100
AcDbSymbolTableRecord
100
AcDbLinetypeTableRecord
2
BYBLOCK
70
0
0
LTYPE
5
15
100
AcDbSymbolTableRecord
100
AcDbLinetypeTableRecord
2
BYLAYER
70
0
0
ENDTAB
0
TABLE
2
LAYER
5
2
100
AcDbSymbolTable
70
2
0
LAYER
5
50
100
AcDbSymbolTableRecord
100
AcDbLayerTableRecord
2
0
70
0
6
CONTINUOUS
0
ENDTAB
0
TABLE
2
STYLE
5
3
100
AcDbSymbolTable
70
1
0
STYLE
5
11
100
AcDbSymbolTableRecord
100
AcDbTextStyleTableRecord
2
STANDARD
70
0
0
ENDTAB
0
TABLE
2
VIEW
5
6
100
AcDbSymbolTable
70
0
0
ENDTAB
0
TABLE
2
UCS
5
7
100
AcDbSymbolTable
70
0
0
ENDTAB
0
TABLE
2
APPID
5
9
100
AcDbSymbolTable
70
2
0
APPID
5
12
100
AcDbSymbolTableRecord
100
AcDbRegAppTableRecord
2
ACAD
70
0
0
ENDTAB
0
TABLE
2
DIMSTYLE
5
A
100
AcDbSymbolTable
70
1
0
ENDTAB
0
TABLE
2
BLOCK_RECORD
5
1
100
AcDbSymbolTable
70
1
0
BLOCK_RECORD
5
1F
100
AcDbSymbolTableRecord
100
AcDbBlockTableRecord
2
*MODEL_SPACE
0
BLOCK_RECORD
5
1B
100
AcDbSymbolTableRecord
100
AcDbBlockTableRecord
2
*PAPER_SPACE
0
ENDTAB
0
ENDSEC
0
SECTION
2
BLOCKS
0
BLOCK
5
20
100
AcDbEntity
100
AcDbBlockBegin
2
*MODEL_SPACE
0
ENDBLK
5
21
100
AcDbEntity
100
AcDbBlockEnd
0
BLOCK
5
1C
100
AcDbEntity
100
AcDbBlockBegin
2
*PAPER_SPACE
0
ENDBLK
5
1D
100
AcDbEntity
100
AcDbBlockEnd
0
ENDSEC
0
SECTION
2
ENTITIES
0
LINE
5
100
100
AcDbEntity
8
0
100
AcDbLine
10
58.890209778158166
20
-99.198412642698472
30
4.5917748078995606e-40
11
59.325123052774813
21
-98.86468394174247
31
-1.4667468698159866e-18
0
LINE
5
101
100
AcDbEntity
8
0
100
AcDbLine
10
59.325123052774813
20
-98.86468394174247
30
-1.4667468698159866e-18
11
59.83160045212032
21
-98.65489243554569
31
5.740123960715635e-18
0
LINE
5
102
100
AcDbEntity
8
0
100
AcDbLine
10
59.83160045212032
20
-98.65489243554569
30
5.740123960715635e-18
11
60.37511861315118
21
-98.583335495503874
31
7.2068710543427558e-18
0
LINE
5
103
100
AcDbEntity
8
0
100
AcDbLine
10
60.37511861315118
20
-98.583335495503874
30
7.2068710543427558e-18
11
60.918673581423263
21
-98.654892284090209
31
0
0
LINE
5
104
100
AcDbEntity
8
0
100
AcDbLine
10
60.918673581423263
20
-98.654892284090209
30
0
11
61.425115219407246
21
-98.86468462547839
31
1.0947644252537633e-46
0
LINE
5
105
100
AcDbEntity
8
0
100
AcDbLine
10
61.425115219407246
20
-98.86468462547839
30
1.0947644252537633e-46
11
61.860003602667945
21
-99.198365222504719
31
5.740123960715635e-18
0
ARC
5
106
100
AcDbEntity
8
0
100
AcDbCircle
10
60.375125915825514
20
-100.68333299251306
30
0
40
2.0999978625813038
210
0
220
-0
230
1
100
AcDbArc
50
44.997501670802301
51
45.001737930570833
0
LINE
5
107
100
AcDbEntity
8
0
100
AcDbLine
10
61.860113392197405
20
-99.198475013491262
30
0
11
62.193777392851352
21
-99.633337892379814
31
2.8700619803578187e-18
0
LINE
5
108
100
AcDbEntity
8
0
100
AcDbLine
10
62.193777392851352
20
-99.633337892379814
30
2.8700619803578187e-18
11
62.403542833251812
21
-100.13971931356004
31
5.740123960715635e-18
0
ARC
5
109
100
AcDbEntity
8
0
100
AcDbCircle
10
60.375125915825514
20
-100.68333299251306
30
0
40
2.0999978625813038
210
0
220
-0
230
1
100
AcDbArc
50
14.996871068239356
51
15.00266186604127
0
LINE
5
110
100
AcDbEntity
8
0
100
AcDbLine
10
62.403597765104308
20
-100.13992432536695
30
0
11
62.475123770944094
21
-100.6831559518095
31
5.740123960715635e-18
0
ARC
5
111
100
AcDbEntity
8
0
100
AcDbCircle
10
60.375125915825514
20
-100.68333299251306
30
0
40
2.0999978625813034
210
0
220
0
230
1
100
AcDbArc
50
-0.0050081597981975158
51
0.0048303310784673188
0
LINE
5
112
100
AcDbEntity
8
0
100
AcDbLine
10
62.475123770384499
20
-100.68351655097074
30
0
11
62.403600068675402
21
-101.22673306066358
31
5.740123960715635e-18
0
ARC
5
113
100
AcDbEntity
8
0
100
AcDbCircle
10
60.375125915825514
20
-100.68333299251306
30
0
40
2.0999978625813092
210
0
220
0
230
1
100
AcDbArc
50
344.99662627896174
51
345.00337181700257
0
LINE
5
114
100
AcDbEntity
8
0
100
AcDbLine
10
62.403536079122858
20
-101.22697187290896
30
0
11
62.193775235210268
21
-101.73333624003148
31
2.8700625379196205e-18
0
LINE
5
115
100
AcDbEntity
8
0
100
AcDbLine
10
62.193775235210268
20
-101.73333624003148
30
2.8700625379196205e-18
11
61.860142735719002
21
-102.1681616248742
31
5.740123960715635e-18
0
ARC
5
116
100
AcDbEntity
8
0
100
AcDbCircle
10
60.375125915825514
20
-100.68333299251306
30
0
40
2.0999978625813149
210
0
220
0
230
1
100
AcDbArc
50
314.99678649231066
51
315.003630610252
0
LINE
5
117
100
AcDbEntity
8
0
100
AcDbLine
10
61.859965358792131
20
-102.16833900309237
30
0
11
61.425113940889837
21
-102.50199078607059
31
5.740123960715635e-18
0
LINE
5
118
100
AcDbEntity
8
0
100
AcDbLine
10
61.425113940889837
20
-102.50199078607059
30
5.740123960715635e-18
11
60.918778347000085
21
-102.71173952398648
31
5.740123960715635e-18
0
ARC
5
119
100
AcDbEntity
8
0
100
AcDbCircle
10
60.375125915825514
20
-100.68333299251306
30
0
40
2.0999978625813123
210
0
220
0
230
1
100
AcDbArc
50
284.99768908332305
51
285.00375648540017
0
LINE
5
120
100
AcDbEntity
8
0
100
AcDbLine
10
60.918563543523526
20
-102.71179708330885
30
0
11
60.375121579320833
21
-102.78333622741393
31
0
0
ARC
5
121
100
AcDbEntity
8
0
100
AcDbCircle
10
60.375125915825514
20
-100.68333299251306
30
0
40
2.0999978625813065
210
0
220
0
230
1
100
AcDbArc
50
269.99860115737704
51
269.99988168426984
0
LINE
5
122
100
AcDbEntity
8
0
100
AcDbLine
10
60.375074645617779
20
-102.78333085446849
30
0
11
59.831600075808495
21
-102.71178239683795
31
0
0
LINE
5
123
100
AcDbEntity
8
0
100
AcDbLine
10
59.831600075808495
20
-102.71178239683795
30
0
11
59.325124357849226
21
-102.50199130868269
31
9.6296497219361793e-34
0
LINE
5
124
100
AcDbEntity
8
0
100
AcDbLine
10
59.325124357849226
20
-102.50199130868269
30
9.6296497219361793e-34
11
58.890209460909368
21
-102.16826199578739
31
5.740123960715635e-18
0
LINE
5
125
100
AcDbEntity
8
0
100
AcDbLine
10
58.890209460909368
20
-102.16826199578739
30
5.740123960715635e-18
11
58.556523916560934
21
-101.73341765153674
31
5.740123960715635e-18
0
ARC
5
126
100
AcDbEntity
8
0
100
AcDbCircle
10
60.375125915825514
20
-100.68333299251306
30
0
40
2.0999978625812994
210
0
220
0
230
1
100
AcDbArc
50
209.99716286862414
51
210.00270084958026
0
LINE
5
127
100
AcDbEntity
8
0
100
AcDbLine
10
58.556422428071649
20
-101.73324186783412
30
0
11
58.346690932977125
21
-101.22685558513011
31
0
0
LINE
5
128
100
AcDbEntity
8
0
100
AcDbLine
10
58.346690932977125
20
-101.22685558513011
30
0
11
58.275127865152925
21
-100.68333350472199
31
7.2068814253405741e-18
0
LINE
5
129
100
AcDbEntity
8
0
100
AcDbLine
10
58.275127865152925
20
-100.68333350472199
30
7.2068814253405741e-18
11
58.346691591616263
21
-100.13981668541227
31
0
0
LINE
5
130
100
AcDbEntity
8
0
100
AcDbLine
10
58.346691591616263
20
-100.13981668541227
30
0
11
58.556461747813202
21
-99.633338078527274
31
0
0
LINE
5
131
100
AcDbEntity
8
0
100
AcDbLine
10
58.556461747813202
20
-99.633338078527274
30
0
11
58.890209778158166
21
-99.198412642698472
31
4.5917748078995606e-40
0
LINE
5
132
100
AcDbEntity
8
0
100
AcDbLine
10
-61.867305149358785
20
-70.349633299179473
30
-1.073821911953343e-18
11
-62.200980435067436
21
-69.914752617207483
31
0
0
LINE
5
133
100
AcDbEntity
8
0
100
AcDbLine
10
-62.200980435067436
20
-69.914752617207483
30
0
11
-62.410787359739608
21
-69.40827528493007
31
0
0
LINE
5
134
100
AcDbEntity
8
0
100
AcDbLine
10
-62.410787359739608
20
-69.40827528493007
30
0
11
-62.482337625540637
21
-68.864861975833819
31
-4.6661763331986678e-18
0
ARC
5
135
100
AcDbEntity
8
0
100
AcDbCircle
10
-60.382330693173614
20
-68.864749467654207
30
0
40
2.100006935380839
210
0
220
0
230
1
100
AcDbArc
50
179.99728812257283
51
180.00306962972834
0
LINE
5
136
100
AcDbEntity
8
0
100
AcDbLine
10
-62.482337626202195
20
-68.864650071825139
30
0
11
-62.410786052205452
21
-68.321236581990618
31
1.2960919783753925e-18
0
LINE
5
137
100
AcDbEntity
8
0
100
AcDbLine
10
-62.410786052205452
20
-68.321236581990618
30
1.2960919783753925e-18
11
-62.200979505974693
21
-67.814755830814818
31
1.9259299443872359e-32
0
LINE
5
138
100
AcDbEntity
8
0
100
AcDbLine
10
-62.200979505974693
20
-67.814755830814818
30
1.9259299443872359e-32
11
-61.867269789177818
21
-67.379830274631956
31
-8.6736173798840386e-18
0
LINE
5
139
100
AcDbEntity
8
0
100
AcDbLine
10
-61.867269789177818
20
-67.379830274631956
30
-8.6736173798840386e-18
11
-61.432318006951249
21
-67.046101484348753
31
8.6736173798853528e-18
0
LINE
5
140
100
AcDbEntity
8
0
100
AcDbLine
10
-61.432318006951249
20
-67.046101484348753
30
8.6736173798853528e-18
11
-60.925878824851637
21
-66.836307693340416
31
-5.1908337961768785e-18
0
LINE
5
141
100
AcDbEntity
8
0
100
AcDbLine
10
-60.925878824851637
20
-66.836307693340416
30
-5.1908337961768785e-18
11
-60.382322584587968
21
-66.764755640079954
31
-2.6963019221421302e-32
0
LINE
5
142
100
AcDbEntity
8
0
100
AcDbLine
10
-60.382322584587968
20
-66.764755640079954
30
-2.6963019221421302e-32
11
-59.838802814745044
21
-66.836310048297449
31
0
0
LINE
5
143
100
AcDbEntity
8
0
100
AcDbLine
10
-59.838802814745044
20
-66.836310048297449
30
0
11
-59.332325567867194
21
-67.046102144759118
31
0
0
LINE
5
144
100
AcDbEntity
8
0
100
AcDbLine
10
-59.332325567867194
20
-67.046102144759118
30
0
11
-58.897413526970787
21
-67.379830274631928
31
1.7347234759767935e-17
0
LINE
5
145
100
AcDbEntity
8
0
100
AcDbLine
10
-58.897413526970787
20
-67.379830274631928
30
1.7347234759767935e-17
11
-58.563665663201256
21
-67.814755830814789
31
-8.673617379883792e-18
0
LINE
5
146
100
AcDbEntity
8
0
100
AcDbLine
10
-58.563665663201256
20
-67.814755830814789
30
-8.673617379883792e-18
11
-58.35389546056453
21
-68.321235570957612
31
8.6736173798839661e-18
0
LINE
5
147
100
AcDbEntity
8
0
100
AcDbLine
10
-58.35389546056453
20
-68.321235570957612
30
8.6736173798839661e-18
11
-58.282331671262213
21
-68.864756542554858
31
9.6296497219361793e-34
0
LINE
5
148
100
AcDbEntity
8
0
100
AcDbLine
10
-58.282331671262213
20
-68.864756542554858
30
9.6296497219361793e-34
11
-58.35389546056453
21
-69.408274087955903
31
-8.6736173798840355e-18
0
LINE
5
149
100
AcDbEntity
8
0
100
AcDbLine
10
-58.35389546056453
20
-69.408274087955903
30
-8.6736173798840355e-18
11
-58.563665267046233
21
-69.914752871602118
31
0
0
LINE
5
150
100
AcDbEntity
8
0
100
AcDbLine
10
-58.563665267046233
20
-69.914752871602118
30
0
11
-58.897413844438773
21
-70.349679797991939
31
0
0
LINE
5
151
100
AcDbEntity
8
0
100
AcDbLine
10
-58.897413844438773
20
-70.349679797991939
30
0
11
-59.332327087638106
21
-70.683408439491643
31
-4.8736683623949275e-18
0
LINE
5
152
100
AcDbEntity
8
0
100
AcDbLine
10
-59.332327087638106
20
-70.683408439491643
30
-4.8736683623949275e-18
11
-59.838804522044569
21
-70.89319952930515
31
4.1536943605131326e-18
0
LINE
5
153
100
AcDbEntity
8
0
100
AcDbLine
10
-59.838804522044569
20
-70.89319952930515
30
4.1536943605131326e-18
11
-60.382322584587968
21
-70.964756403019379
31
1.1555579666323415e-32
0
LINE
5
154
100
AcDbEntity
8
0
100
AcDbLine
10
-60.382322584587968
20
-70.964756403019379
30
1.1555579666323415e-32
11
-60.925877605798476
21
-70.893199991816886
31
0
0
LINE
5
155
100
AcDbEntity
8
0
100
AcDbLine
10
-60.925877605798476
20
-70.893199991816886
30
0
11
-61.432319409553848
21
-70.683407593538874
31
0
0
LINE
5
156
100
AcDbEntity
8
0
100
AcDbLine
10
-61.432319409553848
20
-70.683407593538874
30
0
11
-61.867266572377119
21
-70.349681852460947
31
1.3684555315672042e-47
0
ARC
5
157
100
AcDbEntity
8
0
100
AcDbCircle
10
-60.382330693173614
20
-68.864749467654207
30
0
40
2.1000069353808359
210
-3.615844846429935e-19
220
-3.6156241795301796e-19
230
1
100
AcDbArc
50
224.9982516302033
51
224.99993258482573
0
LWPOLYLINE
5
158
100
AcDbEntity
8
0
100
AcDbPolyline
90
26
70
1
43
0.0
10
59.327313824974098
20
-70.377241751401712
10
59.833790220312302
20
-70.58703390533114
10
60.377307221573602
20
-70.658590883691986
10
60.920863832390388
20
-70.587033531849272
10
61.427303060673708
20
-70.377243401585559
10
61.862254557860737
20
-70.043514131647228
10
62.195964559697146
20
-69.608589055119495
10
62.405772909306492
20
-69.102109314976673
10
62.477336440890696
20
-68.55858742804844
10
62.405772909306485
20
-68.015070797978382
10
62.195964559697117
20
-67.508591057835559
10
61.862259312421557
20
-67.073670735879858
10
61.42730306067368
20
-66.739936711369495
10
60.920863103364113
20
-66.530146385756197
10
60.377307749117797
20
-66.458588047408199
10
59.833789588671131
20
-66.530146376874342
10
59.327312840560715
20
-66.739938929913151
10
58.892398580693225
20
-67.073665501652727
10
58.558725426039814
20
-67.508493700197064
42
2.8968947261179538e-05
10
58.558603757508038
20
-67.508704439013357
10
58.348879752189347
20
-68.015070788313693
10
58.277316981372408
20
-68.55859029062286
10
58.348879752189248
20
-69.102109324640992
10
58.558603757508138
20
-69.608475673941882
42
2.8968947261179538e-05
10
58.558725426039679
20
-69.608686412757777
10
58.892398580693239
20
-70.043514611302385
0
LWPOLYLINE
5
159
100
AcDbEntity
8
0
100
AcDbPolyline
90
31
70
1
43
0.0
10
-60.380133198335798
20
-38.840007971260306
10
-59.836615409405411
20
-38.768451579559326
10
-59.330138042440822
20
-38.558660790079777
10
-58.895224706931764
20
-38.224932390410892
10
-58.561476088321655
20
-37.79000534480766
10
-58.351706340780673
20
-37.283526703470891
10
-58.280142576457209
20
-36.740008968357472
10
-58.351706340780666
20
-36.1964881864726
10
-58.561477267442342
20
-35.69000750281225
10
-58.895223317406824
20
-35.255083726384179
10
-59.330138042440822
20
-34.92135409986372
10
-59.836615824284053
20
-34.711563199217537
10
-60.380133464804658
20
-34.64000810053286
10
-60.923616036059116
20
-34.711552745245548
42
1.7534537803132348e-05
10
-60.923758306782325
20
-34.711590868846173
10
-61.430129391581254
20
-34.921352308596745
10
-61.864992939053124
20
-35.255015576615392
42
2.6104427072823333e-05
10
-61.865147990404381
20
-35.255170629959153
10
-62.198790386190829
20
-35.690008446329792
10
-62.408548371625983
20
-36.196366606783769
42
3.1070669365691515e-05
10
-62.408615921098502
20
-36.196618707370433
10
-62.480136528823891
20
-36.73981171851608
42
4.6885479229885588e-05
10
-62.480136528600248
20
-36.740205556447989
10
-62.408615921246749
20
-37.283396182019636
42
3.1070737256776359e-05
10
-62.408548371625976
20
-37.283648283159756
10
-62.198790386190822
20
-37.790006443613713
10
-61.865147990404274
20
-38.224844259984444
42
2.6104426541197493e-05
10
-61.864992939052939
20
-38.224999313328269
10
-61.430130186234081
20
-38.558662122555887
10
-60.923758306782133
20
-38.768424021097367
42
1.7534829451668596e-05
10
-60.923616033688788
20
-38.768462145333011
0
LWPOLYLINE
5
160
100
AcDbEntity
8
0
100
AcDbPolyline
90
34
70
1
43
0.0
10
-61.869520960913022
20
-99.504658531738883
42
-2.4062863811717093e-05
10
-61.869378034763699
20
-99.504515606151074
10
-61.434507126734879
20
-99.170848868833957
10
-60.928194972532282
20
-98.961109840772707
42
-3.2464461429985048e-05
10
-60.927931564063542
20
-98.961039258814353
10
-60.384604981621749
20
-98.889515303658172
42
-2.220966089826385e-05
10
-60.384418420797203
20
-98.88951530535293
10
-59.841130000896563
20
-98.961039256337955
42
-3.2468943209603867e-05
10
-59.8408665560641
20
-98.961109848041446
10
-59.334651320004809
20
-99.170792933765796
42
-3.4502413222816143e-05
10
-59.334400329269094
20
-99.170937844585097
10
-58.899683544358439
20
-99.504515582747189
42
-2.4071939838319291e-05
10
-58.899540564300608
20
-99.504658562243975
10
-58.565983048241925
20
-99.939336065651062
42
-4.9734436037657446e-05
10
-58.565774164672817
20
-99.93969786421232
10
-58.356085111882749
20
-100.44598167207897
10
-58.28453446045674
20
-100.98940010901111
42
-2.4593787338507443e-05
10
-58.2845344596481
20
-100.98960669646266
10
-58.356086114960448
20
-101.53302145298541
10
-58.565801754484838
20
-102.03937317790313
42
-3.2712010024870895e-05
10
-58.565939142380692
20
-102.0396111460431
10
-58.899602646754431
20
-102.47442676876682
10
-59.334516673622844
20
-102.80815416809983
10
-59.840993636711566
20
-103.01794733753717
10
-60.3845122375605
20
-103.08950588310013
10
-60.928067975759326
20
-103.0179473223295
10
-61.4345071267349
20
-102.80815555905001
10
-61.869458908961469
20
-102.4744267687668
10
-62.203168625758337
20
-102.03950121258394
10
-62.412975440721262
20
-101.53302145306574
10
-62.484527096067794
20
-100.9896066964634
42
-2.4593787338507443e-05
10
-62.484527095259146
20
-100.98940010901188
10
-62.412977156718199
20
-100.44598433278463
10
-62.203168216544967
20
-99.939502227454312
0
LWPOLYLINE
5
161
100
AcDbEntity
8
0
100
AcDbPolyline
90
25
70
1
43
0.0
10
59.329500268653646
20
-38.252495575098621
10
59.83597775941108
20
-38.46228729124411
10
60.379496193789493
20
-38.533841935654685
10
60.923052971472956
20
-38.462287677409222
10
61.429492180457331
20
-38.252496017100363
10
61.864443405808139
20
-37.91876628973057
10
62.198153679480768
20
-37.483841670634298
10
62.407960727315064
20
-36.977361200668717
10
62.479514693961391
20
-36.433925448014378
42
1.9992255183295225e-05
10
62.479514693984541
20
-36.433757512328555
10
62.407960935756186
20
-35.890323427299172
10
62.198153679480782
20
-35.38384367335037
10
61.864443962683907
20
-34.948918117167509
10
61.429492180457345
20
-34.615189326884305
10
60.923053699697093
20
-34.405396367745752
10
60.379498366327283
20
-34.333840886698688
10
59.835980035558663
20
-34.405397109920997
10
59.329502533076237
20
-34.615188408107308
10
58.894587700476883
20
-34.948918117167516
10
58.560839836707324
20
-35.383843673350363
10
58.351069634070626
20
-35.890323413493192
10
58.279505792213882
20
-36.433840559747928
10
58.351069634070626
20
-36.977361930491483
10
58.560840578665527
20
-37.483841461784834
10
58.894587700476862
20
-37.918767226817167
0
LWPOLYLINE
5
162
100
AcDbEntity
8
0
100
AcDbPolyline
90
8
70
1
43
0.0
10
23.045258931233352
20
20.309255683365652
10
-23.454741068766101
20
20.309255683365652
42
0.41421356237309503
10
-25.954741068766101
20
17.809255683365652
10
-25.954741068766101
20
12.809255683365652
42
0.41421356237309503
10
-23.454741068766101
20
10.309255683365652
10
23.045258931233352
20
10.309255683365652
42
0.41421356237309503
10
25.545258931233352
20
12.809255683365652
10
25.545258931233352
20
17.809255683365652
42
0.41421356237309503
0
LWPOLYLINE
5
163
100
AcDbEntity
8
0
100
AcDbPolyline
90
32
70
1
43
0.0
10
79.676017761230469
20
-123.34991249753176
42
-0.41421356237309476
10
69.676017761230469
20
-133.34991249753179
10
-69.676017761230469
20
-133.34991249753179
42
-0.41421356237309503
10
-79.676017761230469
20
-123.34991249753179
10
-79.676017761230469
20
-82.424621582031222
10
-92.671432495117188
20
-54.555969238281214
10
-93.655929565429688
20
-51.968688964843714
10
-94.255142211914062
20
-49.266052246093714
10
-94.456253051757812
20
-46.505126953124964
10
-94.456253051757812
20
76.746826171875028
10
-94.21295166015625
20
79.781799316406278
10
-93.489303588867188
20
82.738952636718778
10
-92.30377197265625
20
85.543212890625028
10
-90.686721801757812
20
88.122863769531278
10
-88.679275512695312
20
90.411682128906278
10
-86.332855224609375
20
92.351684570312528
10
-31.655381103185501
20
130.63720179568517
42
-0.15391452531537028
10
-23.051743955954006
20
133.34991455078125
10
23.051743955953995
20
133.34991455078125
42
-0.15391452531537061
10
31.655381103185487
20
130.63720179568517
10
86.332855224609375
20
92.351684570312528
10
88.679275512695312
20
90.411682128906278
10
90.6866455078125
20
88.122863769531278
10
92.30377197265625
20
85.543212890625028
10
93.489303588867188
20
82.738952636718778
10
94.21295166015625
20
79.781799316406278
10
94.456253051757812
20
76.746826171875028
10
94.456253051757812
20
-46.505126953124964
10
94.255142211914062
20
-49.266052246093714
10
93.655929565429688
20
-51.968688964843714
10
92.671432495117188
20
-54.555969238281214
10
79.676017761230469
20
-82.424621582031222
0
CIRCLE
5
164
100
AcDbEntity
8
0
100
AcDbCircle
10
23.051743955953967
20
118.34991455078114
30
0
40
1.5249999999999986
210
0
220
0
230
1
0
CIRCLE
5
165
100
AcDbEntity
8
0
100
AcDbCircle
10
-23.05174395595396
20
118.34991455078111
30
0
40
1.5249999999999986
210
0
220
0
230
1
0
CIRCLE
5
166
100
AcDbEntity
8
0
100
AcDbCircle
10
-31.124017761230469
20
-116.12759229030971
30
0
40
1.5249999999999986
210
0
220
0
230
1
0
CIRCLE
5
167
100
AcDbEntity
8
0
100
AcDbCircle
10
31.124301376219528
20
-116.12759229030971
30
0
40
1.5249999999999986
210
0
220
0
230
1
0
CIRCLE
5
168
100
AcDbEntity
8
0
100
AcDbCircle
10
87.158417885309532
20
-29.463958740234339
30
0
40
1.5249999999999986
210
0
220
0
230
1
0
CIRCLE
5
169
100
AcDbEntity
8
0
100
AcDbCircle
10
87.158417885309532
20
56.388092041015661
30
0
40
1.5249999999999986
210
0
220
0
230
1
0
CIRCLE
5
170
100
AcDbEntity
8
0
100
AcDbCircle
10
-52.500005101349572
20
93.75166378365455
30
2.0761619534973376e-28
40
2.0999971050485255
210
0
220
0
230
1
0
CIRCLE
5
171
100
AcDbEntity
8
0
100
AcDbCircle
10
52.199977986946813
20
93.751665343538264
30
6.4244296256309165e-29
40
2.1000071828569311
210
0
220
0
230
1
0
CIRCLE
5
172
100
AcDbEntity
8
0
100
AcDbCircle
10
46.824056593650276
20
30.951702713454196
30
0
40
2.0999934082974292
210
0
220
0
230
1
0
CIRCLE
5
173
100
AcDbEntity
8
0
100
AcDbCircle
10
-46.824067554496587
20
30.95171476995279
30
0
40
2.0999963938333988
210
0
220
0
230
1
0
CIRCLE
5
174
100
AcDbEntity
8
0
100
AcDbCircle
10
-87.126684690837635
20
56.388092041015661
30
0
40
1.5249999999999986
210
0
220
0
230
1
0
CIRCLE
5
175
100
AcDbEntity
8
0
100
AcDbCircle
10
-87.126684690837649
20
-29.463958740234339
30
0
40
1.5249999999999986
210
0
220
0
230
1
0
ENDSEC
0
SECTION
2
OBJECTS
0
DICTIONARY
5
C
100
AcDbDictionary
3
ACAD_GROUP
350
D
3
ACAD_MLINESTYLE
350
17
0
DICTIONARY
5
D
100
AcDbDictionary
0
DICTIONARY
5
1A
330
C
100
AcDbDictionary
0
DICTIONARY
5
17
100
AcDbDictionary
0
ENDSEC
0
EOF
